<svg width="63" height="42" viewBox="0 0 63 42" fill="none" xmlns="http://www.w3.org/2000/svg">
<circle cx="21" cy="21" r="17" stroke="#1D1D1D" stroke-width="2"/>
<circle cx="21" cy="15" r="5.25" stroke="#1D1D1D" stroke-width="1.5"/>
<mask id="path-3-inside-1_2738_15025" fill="white">
<path fill-rule="evenodd" clip-rule="evenodd" d="M8.20898 33.6647C9.30913 27.5995 14.6173 23 20.9998 23C27.3823 23 32.6905 27.5995 33.7906 33.6647C30.5284 36.9592 26.0024 39 20.9998 39C15.9972 39 11.4712 36.9592 8.20898 33.6647Z"/>
</mask>
<path d="M8.20898 33.6647L6.24109 33.3078L6.05528 34.3322L6.78783 35.0719L8.20898 33.6647ZM33.7906 33.6647L35.2118 35.0719L35.9443 34.3322L35.7585 33.3078L33.7906 33.6647ZM10.1769 34.0217C11.1075 28.8908 15.6014 25 20.9998 25V21C13.6333 21 7.51072 26.3082 6.24109 33.3078L10.1769 34.0217ZM20.9998 25C26.3982 25 30.8921 28.8908 31.8227 34.0217L35.7585 33.3078C34.4889 26.3082 28.3663 21 20.9998 21V25ZM32.3695 32.2575C29.4675 35.1882 25.4471 37 20.9998 37V41C26.5578 41 31.5894 38.7302 35.2118 35.0719L32.3695 32.2575ZM20.9998 37C16.5525 37 12.5321 35.1882 9.63014 32.2575L6.78783 35.0719C10.4102 38.7302 15.4418 41 20.9998 41V37Z" fill="#1D1D1D" mask="url(#path-3-inside-1_2738_15025)"/>
<path d="M50 18L55.6464 23.6464C55.8417 23.8417 56.1583 23.8417 56.3536 23.6464L62 18" stroke="#1D1D1D" stroke-width="2" stroke-linecap="round"/>
</svg>
