<svg width="42" height="42" viewBox="0 0 42 42" fill="none" xmlns="http://www.w3.org/2000/svg">
<path d="M38.5532 10.9169C38.4608 10.806 38.3452 10.7167 38.2145 10.6555C38.0838 10.5943 37.9412 10.5625 37.7969 10.5625H11.0547L10.2065 5.88672C10.1104 5.3572 9.8314 4.87824 9.41821 4.53342C9.00502 4.18859 8.48387 3.99981 7.9457 4H4.98438C4.7233 4 4.47292 4.10371 4.28832 4.28832C4.10371 4.47292 4 4.7233 4 4.98438C4 5.24545 4.10371 5.49583 4.28832 5.68043C4.47292 5.86504 4.7233 5.96875 4.98438 5.96875H7.9375C8.0152 5.96748 8.09082 5.99383 8.15091 6.0431C8.211 6.09237 8.25165 6.16137 8.26562 6.23781L12.4509 29.2558C12.5836 29.99 12.9414 30.6649 13.4746 31.1868C12.8307 31.7018 12.3499 32.3924 12.0903 33.175C11.8307 33.9576 11.8035 34.7987 12.012 35.5964C12.2204 36.3941 12.6556 37.1144 13.2649 37.6699C13.8741 38.2255 14.6314 38.5925 15.4449 38.7267C16.2584 38.8609 17.0934 38.7564 17.8488 38.4259C18.6042 38.0954 19.2476 37.5531 19.7012 36.8645C20.1548 36.1759 20.3991 35.3707 20.4045 34.5462C20.41 33.7217 20.1764 32.9132 19.732 32.2187H28.2993C27.7892 33.017 27.5593 33.9624 27.646 34.9058C27.7326 35.8492 28.1309 36.7369 28.7779 37.4289C29.4249 38.1209 30.2839 38.5778 31.2194 38.7276C32.1548 38.8774 33.1135 38.7115 33.9442 38.2561C34.775 37.8007 35.4304 37.0817 35.8073 36.2125C36.1842 35.3433 36.261 34.3734 36.0256 33.4558C35.7902 32.5381 35.256 31.7249 34.5073 31.1445C33.7586 30.564 32.838 30.2493 31.8906 30.25H16.0045C15.6202 30.2501 15.2482 30.1153 14.9531 29.8691C14.6581 29.623 14.4589 29.2811 14.3901 28.903L13.7995 25.6562H33.2195C34.0648 25.6565 34.8834 25.36 35.5325 24.8185C36.1816 24.277 36.6201 23.5249 36.7715 22.6933L38.7648 11.7224C38.7906 11.5808 38.785 11.4353 38.7484 11.2962C38.7119 11.157 38.6452 11.0275 38.5532 10.9169ZM18.4375 34.5156C18.4375 34.9699 18.3028 35.414 18.0504 35.7917C17.798 36.1694 17.4393 36.4638 17.0196 36.6377C16.5999 36.8115 16.1381 36.857 15.6925 36.7684C15.247 36.6797 14.8377 36.461 14.5165 36.1398C14.1953 35.8185 13.9765 35.4093 13.8879 34.9637C13.7993 34.5182 13.8447 34.0563 14.0186 33.6366C14.1924 33.2169 14.4868 32.8582 14.8645 32.6058C15.2423 32.3535 15.6863 32.2187 16.1406 32.2187C16.7498 32.2187 17.334 32.4607 17.7648 32.8915C18.1955 33.3222 18.4375 33.9065 18.4375 34.5156ZM34.1875 34.5156C34.1875 34.9699 34.0528 35.414 33.8004 35.7917C33.548 36.1694 33.1893 36.4638 32.7696 36.6377C32.3499 36.8115 31.8881 36.857 31.4425 36.7684C30.997 36.6797 30.5877 36.461 30.2665 36.1398C29.9453 35.8185 29.7265 35.4093 29.6379 34.9637C29.5493 34.5182 29.5947 34.0563 29.7686 33.6366C29.9424 33.2169 30.2368 32.8582 30.6145 32.6058C30.9923 32.3535 31.4363 32.2187 31.8906 32.2187C32.4998 32.2187 33.084 32.4607 33.5148 32.8915C33.9455 33.3222 34.1875 33.9065 34.1875 34.5156ZM34.8339 22.3405C34.7651 22.7186 34.5659 23.0605 34.2708 23.3066C33.9758 23.5528 33.6038 23.6876 33.2195 23.6875H13.4418L11.414 12.5312H36.6173L34.8339 22.3405Z" fill="#1D1D1D"/>
</svg>
