<svg width="30" height="31" viewBox="0 0 30 31" fill="white" xmlns="http://www.w3.org/2000/svg">
<path d="M15.5 2.61803L15.2622 2.69529L15.2624 2.69586C15.2624 2.69567 15.2623 2.69548 15.2622 2.69529L15.5 2.61803ZM15.5 2.61803L15.7378 2.69529L15.7376 2.69587C15.7376 2.69567 15.7377 2.69548 15.7378 2.69529L15.5 2.61803ZM15.5 3.42705L17.9299 10.9055C18.0972 11.4206 18.5772 11.7693 19.1187 11.7693L26.9821 11.7693L20.6205 16.3912C20.1824 16.7095 19.9991 17.2737 20.1664 17.7887L22.5963 25.2672L16.2347 20.6453C15.7966 20.327 15.2034 20.327 14.7653 20.6453L8.4037 25.2672L10.8336 17.7887C11.0009 17.2737 10.8176 16.7095 10.3795 16.3912L4.01794 11.7693L11.8813 11.7693C12.4228 11.7693 12.9028 11.4205 13.0701 10.9055L15.5 3.42705Z" stroke="#2F5333" stroke-width="1.5"/>
</svg>
